<svg width="1304" height="711" viewBox="0 0 1304 711" fill="none" xmlns="http://www.w3.org/2000/svg">
<g filter="url(#filter0_dd_182_6121)">
<path d="M429.96 391V348.16H396.72V361.48H414.36C414.36 371.44 405.84 379.72 394.92 379.72C379.44 379.72 372.84 364.84 372.84 351.76C372.84 332.8 381.72 322.48 395.04 322.48C404.16 322.48 412.2 328.48 413.04 335.92H429.84C428.64 319.96 414 308.68 395.04 308.68C369.24 308.68 355.8 327.52 355.8 351.04C355.8 373.24 369.84 393.76 391.92 393.76C402.84 393.76 411.96 389.8 415.8 383.08L416.16 391H429.96ZM467.184 379.48C459.384 379.48 455.544 376.48 455.544 366.28C455.544 352.36 461.304 343.6 473.544 343.6C481.224 343.6 485.184 346 485.184 356.68C485.184 370.6 479.304 379.48 467.184 379.48ZM464.904 392.56C486.024 392.56 501.024 377.2 501.024 355.6C501.024 340.36 491.784 330.4 475.824 330.4C454.344 330.4 439.344 345.76 439.344 367.24C439.344 382.24 448.344 392.56 464.904 392.56ZM531.872 379.48C524.072 379.48 520.232 376.48 520.232 366.28C520.232 352.36 525.992 343.6 538.232 343.6C545.912 343.6 549.872 346 549.872 356.68C549.872 370.6 543.992 379.48 531.872 379.48ZM529.592 392.56C550.712 392.56 565.712 377.2 565.712 355.6C565.712 340.36 556.472 330.4 540.512 330.4C519.032 330.4 504.032 345.76 504.032 367.24C504.032 382.24 513.032 392.56 529.592 392.56ZM615.999 349.84C615.159 337.12 607.479 330.4 590.439 330.4C572.439 330.4 565.599 337.96 565.599 347.92C565.599 353.2 567.519 357.76 573.039 361.24C577.239 363.88 582.759 365.56 592.719 367.96C597.759 369.16 602.199 370.48 602.199 374.68C602.199 379.12 597.279 380.8 591.759 380.8C584.199 380.8 579.519 377.56 579.519 372.04H563.439C563.679 384.04 573.759 392.56 591.879 392.56C608.679 392.56 617.679 385.24 617.679 373C617.679 365.32 614.199 361.24 607.959 358.72C603.399 356.92 597.039 355.6 590.319 353.68C583.959 351.88 580.719 350.44 580.719 346.96C580.719 343.48 584.079 342.04 589.959 342.04C597.039 342.04 600.159 344.08 600.999 349.84H615.999ZM636.841 355.72C637.441 347.56 642.601 342.76 648.841 342.76C654.961 342.76 660.721 346.96 660.961 355.72H636.841ZM677.041 365.56C677.041 342.16 667.441 330.4 649.321 330.4C631.201 330.4 620.761 342.16 620.761 360.4C620.761 381.76 630.601 392.56 650.281 392.56C662.881 392.56 672.601 385.72 676.201 373.6H660.121C659.041 377.68 654.601 380.2 649.561 380.2C641.881 380.2 636.841 374.44 636.361 365.56H677.041ZM720.473 391V325.24H744.593V311.32H679.793V325.24H703.793V391H720.473ZM758.267 391V360.28C758.267 350.8 762.947 346 772.547 346C773.987 346 775.427 346.12 776.867 346.36V330.4H774.827C768.467 330.4 762.467 331.12 757.307 339.04V331.96H742.667V391H758.267ZM814.052 368.56C813.932 375.52 807.932 381.4 799.892 381.4C794.972 381.4 792.332 379.24 792.332 374.8C792.332 369.76 795.212 367.24 804.092 365.56C809.852 364.48 812.612 363.64 814.172 362.08L814.052 368.56ZM829.772 391V353.68C829.772 338.8 823.292 330.4 804.572 330.4C785.612 330.4 778.892 338.92 778.652 351.16H793.172C793.892 345.88 796.772 342.4 803.852 342.4C809.972 342.4 813.812 344.68 813.812 348.52C813.812 352.6 811.652 354.16 803.852 355.24C788.132 357.4 776.732 359.32 776.732 376.36C776.732 385.96 782.972 392.56 796.412 392.56C804.332 392.56 810.572 389.8 814.292 385.72C814.412 387.52 814.772 389.56 815.252 391H829.772ZM874.091 369.64C873.491 376 868.691 379.48 862.571 379.48C856.451 379.48 851.051 373.24 851.051 360.4C851.051 347.56 856.451 343.36 863.051 343.36C868.931 343.36 873.371 346.96 874.211 353.08H889.931C888.971 339.16 878.531 330.4 863.171 330.4C846.611 330.4 835.571 339.64 835.571 360.76C835.571 381.88 846.611 392.56 862.691 392.56C876.971 392.56 888.131 383.32 889.811 369.64H874.091ZM948.185 391L928.865 353.68L948.665 331.96H929.585L910.145 354.4V310.36H894.425V391H910.145V372.28L917.705 364.48L930.665 391H948.185Z" fill="white"/>
</g>
<defs>
<filter id="filter0_dd_182_6121" x="0.799805" y="0.679993" width="1302.86" height="795.08" filterUnits="userSpaceOnUse" color-interpolation-filters="sRGB">
<feFlood flood-opacity="0" result="BackgroundImageFix"/>
<feColorMatrix in="SourceAlpha" type="matrix" values="0 0 0 0 0 0 0 0 0 0 0 0 0 0 0 0 0 0 127 0" result="hardAlpha"/>
<feOffset dy="9.4"/>
<feGaussianBlur stdDeviation="28.8438"/>
<feColorMatrix type="matrix" values="0 0 0 0 0 0 0 0 0 0 0 0 0 0 0 0 0 0 0.035 0"/>
<feBlend mode="normal" in2="BackgroundImageFix" result="effect1_dropShadow_182_6121"/>
<feColorMatrix in="SourceAlpha" type="matrix" values="0 0 0 0 0 0 0 0 0 0 0 0 0 0 0 0 0 0 127 0" result="hardAlpha"/>
<feOffset dy="47"/>
<feGaussianBlur stdDeviation="177.5"/>
<feColorMatrix type="matrix" values="0 0 0 0 0 0 0 0 0 0 0 0 0 0 0 0 0 0 0.07 0"/>
<feBlend mode="normal" in2="effect1_dropShadow_182_6121" result="effect2_dropShadow_182_6121"/>
<feBlend mode="normal" in="SourceGraphic" in2="effect2_dropShadow_182_6121" result="shape"/>
</filter>
</defs>
</svg>
